<?xml version="1.0" encoding="UTF-8" standalone="no"?>
<svg
   height="300"
   viewBox="0 0 512 512"
   xmlns="http://www.w3.org/2000/svg"
   xmlns:xlink="http://www.w3.org/1999/xlink"
   width="300">
  <defs
     id="defs8">
    <linearGradient
       id="linearGradient21253">
      <stop
         style="stop-color:#d2d2d2;stop-opacity:1;"
         offset="0"
         id="stop21249" />
      <stop
         style="stop-color:#d2d2d2;stop-opacity:0;"
         offset="1"
         id="stop21251" />
    </linearGradient>
    <linearGradient
       xlink:href="#linearGradient21253"
       id="linearGradient21255"
       x1="349.74301"
       y1="303.29279"
       x2="426.2493"
       y2="387.99615"
       gradientUnits="userSpaceOnUse"
       gradientTransform="matrix(0.99515859,0,0,1.0031821,1.553098,-3.1453141)" />
  </defs>
  <path
     style="fill:#b1fd58"
     d="m 184.96604,22.752059 c 37.14344,24.15704 70.38498,47.058167 97.36428,84.347141 -32.45476,32.45476 -64.90952,64.90952 -97.36428,97.36428 0,-60.57047 0,-121.140947 0,-181.711421 z"
     id="path58" />
  <path
     id="rect12924-3"
     style="fill:#999999;stop-color:#000000"
     d="m 183.66536,226.10228 v 12.77491 c 0.86659,2.96211 1.46164,6.04496 1.46164,9.30605 v 244.37639 h 230.95267 c 18.62529,0 33.6211,-15.09935 33.6211,-33.85749 V 259.95976 c 0,-18.75813 -14.99581,-33.85748 -33.6211,-33.85748 z" />
  <path
     id="rect12924"
     style="fill:#e3e3e3;stop-color:#000000"
     d="m 183.46146,224.87146 v 13.91245 c 0.86659,2.92723 1.46164,5.97377 1.46164,9.19646 v 241.49846 h 230.95267 c 18.62529,0 33.6211,-14.92153 33.6211,-33.45876 V 259.6182 c 0,-18.53723 -14.99581,-34.74674 -33.6211,-34.74674 z"/>
  <path
     id="rect12924-2"
     style="fill:url(#linearGradient21255);stop-color:#000000"
     d="m 184.75069,222.16383 v 12.82259 c 0.86238,2.97311 1.45388,6.06617 1.45388,9.33938 v 248.53067 l 229.83251,-3.24848 c 18.53329,-0.26195 33.45857,-15.15433 33.45857,-33.98212 L 448.637,350.32319 329.79659,225.07116 Z" />
  <g
     id="g21721"
     transform="translate(0.24150943,0.7245283)">
    <path
       style="fill:#8cc347"
       d="m 184.30189,363.52399 c 48.14875,-46.90423 96.96166,-93.1443 145.11041,-140.04853 9.52154,72.48421 -8.34725,193.66217 -145.11041,268.70456 z"/>
    <path
       style="fill:#31ab70"
       d="M 114.48302,134.45548 V 75.231404 c 20.51831,-21.033926 44.56283,-38.406269 70.14852,-52.697793 3.51288,1.644741 0,181.034799 0,181.034799 0,0 -49.13891,-48.11248 -70.14852,-69.11293 z"/>
    <path
       style="fill:#0a8041"
       d="M 41.46604,224.21017 C 44.224059,198.06383 53.693518,162.2667 70.984275,133.96604 H 114.4766 c 23.50051,23.5075 46.2972,45.88854 69.79771,69.39604 -0.17069,53.03215 0.17069,160.38322 0,160.2833 0,0 -95.141605,-92.97693 -142.80827,-139.43521 z"/>
    <path
       style="fill:#0a542a"
       d="M 41.46604,223.7565 184.30367,363.46668 V 492.21754 C 54.872697,423.04908 33.423421,302.19609 41.46604,223.7565 Z"/>
    <path
       style="fill:#b2ff59"
       d="M 184.30367,203.31379 V 22.200484 c 42.9144,21.862857 73.56365,52.270097 98.32556,85.024446 z"/>
    <path
       style="fill:#acd37e"
       d="m 184.30367,203.41687 c -0.26087,-0.0202 98.33657,-96.2758 98.33657,-96.2758 17.54497,26.36095 43.07892,78.60777 46.73924,117.00806 -52.76897,51.59913 -98.35727,93.24662 -145.07581,139.39016 z"/>
  </g>
</svg>
